<svg width="32" height="28" viewBox="0 0 32 28" fill="none" xmlns="http://www.w3.org/2000/svg">
<path d="M12.9657 2.46517C12.7166 1.66381 12.4651 0.855834 12.4606 0.845255C12.3406 0.534496 12.0629 0.338783 11.7703 0.373165C11.5851 0.390356 7.20457 0.826742 4.39771 3.43844C2.93029 5.00679 0 14.1762 0 22.1038C0 22.244 0.0308572 22.3802 0.0914286 22.5019C2.11543 26.6145 7.63314 27.6909 8.89029 27.7372C8.89829 27.7385 8.90514 27.7385 8.912 27.7385C9.13371 27.7385 9.34171 27.6155 9.47429 27.4079L10.8343 25.2762C8.58743 24.8808 8.18172 24.3651 8.08686 24.2844C7.57943 23.852 7.20457 23.2464 7.65943 22.482C8.00914 21.8883 8.74286 21.6926 9.30514 22.0271C9.88114 22.3379 11.4229 23.3376 16 23.3112C20.5451 23.2953 22.5406 22.1938 22.5691 22.17C23.3326 21.7719 23.928 21.9359 24.2994 22.5257C24.7417 23.3284 24.4263 23.8719 23.9211 24.303C23.8263 24.3836 23.5966 24.6098 21.1829 25.2709L22.5257 27.4066C22.6571 27.6155 22.8663 27.7372 23.088 27.7372C23.096 27.7372 23.1029 27.7372 23.1097 27.7359C24.368 27.6896 29.8857 26.6132 31.9086 22.5006C31.9691 22.3789 32 22.2427 32 22.1025C32 14.1762 29.0697 5.00679 27.5657 3.40406C24.7954 0.828065 20.4149 0.391679 20.2297 0.373165C19.9371 0.344073 19.6594 0.535818 19.5394 0.845255C19.5349 0.855834 19.2903 1.67703 19.0537 2.46914C19.0537 2.46914 17.1897 2.15309 16 2.15309C14.8103 2.15309 12.9657 2.46517 12.9657 2.46517ZM11.4286 19.344C10.1657 19.344 9.14286 17.5813 9.14286 15.4047C9.14286 13.228 10.1657 11.4653 11.4286 11.4653C12.696 11.2471 13.6869 13.228 13.7143 15.4047C13.7143 17.5813 12.6914 19.344 11.4286 19.344ZM20.5714 19.344C19.3086 19.344 18.2857 17.5694 18.2857 15.3809C18.2857 13.1923 19.3086 11.4177 20.5714 11.4177C21.8343 11.4177 22.8571 13.1923 22.8571 15.3809C22.8571 17.5694 21.8343 19.344 20.5714 19.344Z" fill="white"/>
</svg>
