<svg width="69" height="101" viewBox="0 0 69 101" fill="none" xmlns="http://www.w3.org/2000/svg">
<path d="M59.6357 4.13868C58.5884 21.3172 51.2571 36.9531 39.5826 46.9447L38.6585 47.7159L40.1062 47.0498C42.4165 45.928 46.4518 44.5607 49.5937 43.7894C51.8732 43.2285 54.1835 43.0182 59.9129 42.8429C63.979 42.7377 67.6754 42.6676 68.1683 42.7377L69 42.8429V74.3601H64.3179C61.7304 74.3601 58.4036 74.5354 56.925 74.7107C47.0371 76.0079 39.1821 84.2465 37.1491 95.4651C36.8719 96.9376 36.6562 98.7255 36.6562 99.4267V100.654H8.5942L8.74821 98.6204C8.84062 97.5336 8.99464 95.4651 9.08705 94.0628C10.0112 81.0562 16.5415 66.6473 25.567 57.5673C26.8299 56.3052 28.3085 54.9029 28.8013 54.4822C29.5714 53.8511 29.2326 53.9212 26.8915 54.9379C20.2379 57.7426 15.5866 58.584 6.40714 58.584H0V27.1368L6.25312 26.9265C10.7196 26.8213 13.0299 26.5759 14.4777 26.1552C19.3754 24.6827 24.5196 20.7562 27.2612 16.374C29.8795 12.202 31.7277 6.34734 31.7277 2.35071V0.738037H59.8513L59.6357 4.13868Z" fill="white"/>
</svg>
