<svg width="104" height="23" viewBox="0 0 104 23" fill="none" xmlns="http://www.w3.org/2000/svg">
<path d="M99.0742 12.6417H103.998V17.2602H99.0742V12.6417Z" fill="white"/>
<path d="M83.7852 5.23846H88.6527L91.1318 13.2416L93.4297 5.23846H97.969L93.2033 18.0866C92.66 19.5506 92.1053 20.5392 91.5393 21.0524C90.7394 21.7768 89.5206 22.1391 87.883 22.1391C87.2189 22.1391 86.1925 22.0485 84.8039 21.8674L84.4417 18.6526C85.1058 18.8639 85.8454 18.9695 86.6604 18.9695C87.2038 18.9695 87.6415 18.845 87.9735 18.596C88.3131 18.3469 88.5999 17.9017 88.8338 17.2602L83.7852 5.23846Z" fill="white"/>
<path d="M77.793 0.665283H82.4115V17.2603H77.793V0.665283Z" fill="white"/>
<path d="M75.0611 0.665283V17.2603H70.7482V15.483C70.1445 16.2377 69.5936 16.7471 69.0955 17.0112C68.4314 17.3584 67.6918 17.5319 66.8768 17.5319C65.2392 17.5319 63.9865 16.9094 63.1186 15.6642C62.2583 14.419 61.8281 12.9059 61.8281 11.1249C61.8281 9.13257 62.3036 7.60816 63.2544 6.55164C64.2129 5.49511 65.4279 4.96685 66.8994 4.96685C67.6164 4.96685 68.2654 5.08759 68.8465 5.32909C69.4351 5.57058 69.9558 5.93281 70.4086 6.4158V0.665283H75.0611ZM70.4426 11.2154C70.4426 10.2721 70.2426 9.57028 69.8426 9.10993C69.4426 8.64205 68.937 8.4081 68.3258 8.4081C67.7899 8.4081 67.3409 8.63073 66.9787 9.07597C66.6164 9.52122 66.4353 10.2683 66.4353 11.3173C66.4353 12.2984 66.6202 13.0191 66.99 13.4794C67.3673 13.9322 67.8314 14.1586 68.3824 14.1586C68.971 14.1586 69.4615 13.9284 69.8539 13.4681C70.2464 13.0078 70.4426 12.2569 70.4426 11.2154Z" fill="white"/>
<path d="M47.1719 5.23847H51.4621V7.19682C52.1036 6.39688 52.7526 5.82711 53.4091 5.48751C54.0657 5.14037 54.8656 4.9668 55.809 4.9668C57.0843 4.9668 58.0805 5.3479 58.7974 6.11011C59.5219 6.86477 59.8841 8.03449 59.8841 9.61928V17.2602H55.2543V10.6494C55.2543 9.89473 55.1147 9.36269 54.8355 9.05328C54.5562 8.73633 54.1638 8.57785 53.6582 8.57785C53.0997 8.57785 52.6469 8.78915 52.2998 9.21176C51.9526 9.63437 51.7791 10.3928 51.7791 11.4871V17.2602H47.1719V5.23847Z" fill="white"/>
<path d="M39.8516 0.665283H44.4588V3.8009H39.8516V0.665283ZM39.8516 5.23853H44.4588V17.2603H39.8516V5.23853Z" fill="white"/>
<path d="M16.6641 5.23846H21.1241L23.0598 12.8115L25.5049 5.23846H29.6593L32.195 12.8115L34.1307 5.23846H38.5568L34.1307 17.2602H30.0329L27.5991 10.0268L25.2446 17.2602H21.1241L16.6641 5.23846Z" fill="white"/>
<path d="M0.640625 0.665222H16.2281V4.76303H10.9983V17.2602H5.87042V4.76303H0.640625V0.665222Z" fill="white"/>
</svg>
